# xmcd CD database file
#
# Track frame offsets:
#	150
#	22243
#	43554
#	60892
#	86013
#	103404
#	126030
#	151510
#	172470
#	194948
#	216471
#	234825
#	256150
#	280633
#	312051
#
# Disc length: 4494 seconds
#
# Revision: 1
# Processed by: cddbd v1.4PL0 Copyright (c) Steve Scherf et al.
# Submitted via: CDex 1.40Beta9
#
DISCID=d2118c0f
DTITLE=dramatic love story - kiss -for million lovers-
DYEAR=1900
DGENRE=
TTITLE0=Love story wa totsuzenni
TTITLE1=SAY YES
TTITLE2=TRUE LOVE
TTITLE3=PIECE OF MY WISH
TTITLE4=Riverside hotel
TTITLE5=Koi ni ochite
TTITLE6=SUMMER CANDLES
TTITLE7=Yume wo akiramenaide
TTITLE8=Seppun kiss
TTITLE9=Squall
TTITLE10=SHOW ME
TTITLE11=Silent eve
TTITLE12=Yume with You
TTITLE13=Everything
TTITLE14=Kagayakutoki no nakade
EXTD=
EXTT0=
EXTT1=
EXTT2=
EXTT3=
EXTT4=
EXTT5=
EXTT6=
EXTT7=
EXTT8=
EXTT9=
EXTT10=
EXTT11=
EXTT12=
EXTT13=
EXTT14=
PLAYORDER=
